<svg xmlns="http://www.w3.org/2000/svg" viewBox="0 0 151.25 16.25"><defs><style>.a{fill:#fff;}</style></defs><path class="a" d="M57,16.25a7.839,7.839,0,0,1-4.884-1.387,5.268,5.268,0,0,1-2.006-3.853h4.828c.242,1.124.878,1.562,2.269,1.562,1.163,0,1.857-.415,1.857-1.11,0-.845-.7-1.016-2.082-1.359-.2-.049-.413-.1-.641-.161a14.99,14.99,0,0,1-4.167-1.48A4.1,4.1,0,0,1,50.4,4.91a4.353,4.353,0,0,1,1.689-3.572A7.734,7.734,0,0,1,56.851,0a7.8,7.8,0,0,1,4.693,1.261,4.75,4.75,0,0,1,1.908,3.587H58.77c-.166-.925-.8-1.355-2-1.355-1.055,0-1.568.343-1.568,1.048,0,.762.7.944,1.977,1.274l.018,0,.295.077c.287.074.565.143.834.211a11.914,11.914,0,0,1,3.581,1.248,3.974,3.974,0,0,1,1.98,3.6,4.683,4.683,0,0,1-1.766,3.906A8.219,8.219,0,0,1,57,16.25Zm-27.662,0a7.888,7.888,0,0,1-5.819-2.185,8.276,8.276,0,0,1-2.122-5.93C21.392,3.117,24.4,0,29.23,0A7.942,7.942,0,0,1,34.5,1.628a6.382,6.382,0,0,1,2.133,4.617H31.912a2.376,2.376,0,0,0-2.62-2.383,2.473,2.473,0,0,0-2.182,1.066,5.762,5.762,0,0,0-.727,3.208c0,2.782,1.056,4.253,3.054,4.253a2.483,2.483,0,0,0,2.6-2.547h4.683C36.448,13.915,33.756,16.25,29.334,16.25Zm-19.518,0h0L.672,7.143a2.276,2.276,0,0,1,0-3.227L3.91.69a2.292,2.292,0,0,1,3.24,0L9.815,3.347,12.478.695a2.291,2.291,0,0,1,3.242,0l3.238,3.225a2.276,2.276,0,0,1,0,3.227L9.816,16.25Zm88.41-.212A4.466,4.466,0,0,1,94.8,14.612a5.155,5.155,0,0,1-1.235-3.484,4.574,4.574,0,0,1,4.549-4.892,4.118,4.118,0,0,1,3.051,1.178,5.734,5.734,0,0,1,1.408,4.2H95.542c.155,1.8,1.164,2.869,2.7,2.869a2.123,2.123,0,0,0,2.211-1.336h1.957A4.053,4.053,0,0,1,98.225,16.039ZM98.116,7.7c-1.417,0-2.318.929-2.538,2.617h4.929C100.416,8.653,99.544,7.7,98.116,7.7Zm-26.023,8.34a4.437,4.437,0,0,1-3.38-1.427,5.129,5.129,0,0,1-1.26-3.484A5.116,5.116,0,0,1,68.7,7.661a4.415,4.415,0,0,1,3.37-1.424,3.884,3.884,0,0,1,4.151,3.3H74.267a2.067,2.067,0,0,0-2.174-1.769c-1.621,0-2.628,1.286-2.628,3.357s1.007,3.339,2.628,3.339a2.045,2.045,0,0,0,2.21-2.039h1.958C76.094,14.656,74.5,16.039,72.093,16.039Zm50.2-.055c-1.956,0-3.172-1.037-3.172-2.707,0-2.236,1.765-2.639,3.9-2.906,1.481-.165,2.284-.421,2.284-1.3,0-.9-.671-1.444-1.795-1.444-1.282,0-1.99.556-2.048,1.606h-1.885c.047-1.383,1.1-3,3.914-3,2.453,0,3.7,1.051,3.7,3.123v4.331c0,.522.084.823.514.823a1.131,1.131,0,0,0,.266-.029h.054V15.7a1.987,1.987,0,0,1-.96.2,1.519,1.519,0,0,1-1.741-1.39H125.3A3.513,3.513,0,0,1,122.29,15.984Zm3.046-5.036h0a6.179,6.179,0,0,1-1.9.614c-1.39.263-2.3.521-2.3,1.679,0,.9.573,1.354,1.7,1.354a2.316,2.316,0,0,0,2.5-2.221V10.948ZM80.628,15.984c-1.956,0-3.172-1.037-3.172-2.707,0-2.236,1.764-2.639,3.9-2.906,1.481-.165,2.284-.421,2.284-1.3,0-.9-.671-1.444-1.8-1.444-1.281,0-1.989.556-2.048,1.606H77.909c.048-1.383,1.1-3,3.915-3,2.453,0,3.7,1.051,3.7,3.123v4.331c0,.522.084.823.513.823a1.269,1.269,0,0,0,.266-.029h.055V15.7a2,2,0,0,1-.961.2,1.517,1.517,0,0,1-1.739-1.39h-.018A3.512,3.512,0,0,1,80.628,15.984Zm3.045-5.036h0a6.066,6.066,0,0,1-1.9.614c-1.391.263-2.3.522-2.3,1.679,0,.9.573,1.354,1.7,1.354a2.316,2.316,0,0,0,2.5-2.221V10.948Zm-37.9,4.87H40.844L35.667.431H40.72l2.6,9.943L46.1.431h4.868l-5.2,15.386Zm92.264-.049h-1.975V2.861h1.975V8.277c0,.789-.037,1.533-.072,1.967l3.715-3.773h2.393l-3.461,3.394,3.876,5.9-2.318,0-2.954-4.6-1.179,1.156v3.448Zm-26.2,0h-1.975V9.63c0-1.1-.569-1.75-1.523-1.75a2.187,2.187,0,0,0-2.065,2.292v5.6h-1.994v-9.3h1.939V7.88h.055a3.019,3.019,0,0,1,2.772-1.642,2.444,2.444,0,0,1,2.465,1.733h.037a3.3,3.3,0,0,1,2.9-1.733A2.821,2.821,0,0,1,117.417,9.4v6.37h-1.993V9.63a1.565,1.565,0,0,0-1.577-1.75,2.118,2.118,0,0,0-2.012,2.292v5.6Zm19.716,0h-1.993v-9.3H131.5V8.186h.055a2.94,2.94,0,0,1,2.7-1.805,1.884,1.884,0,0,1,.6.09V8.277H134.8a2.445,2.445,0,0,0-.652-.073,2.53,2.53,0,0,0-2.592,2.8v4.765Zm-41.663,0H87.894v-9.3h1.94V8.186h.054a2.938,2.938,0,0,1,2.7-1.805,1.839,1.839,0,0,1,.6.09V8.277h-.054A2.445,2.445,0,0,0,92.48,8.2,2.53,2.53,0,0,0,89.888,11v4.765ZM148.713,6.6h-.544V3.529H149l.4,1.319c.073.224.182.638.308,1.165l0,.007h.017a.011.011,0,0,1,0-.007l.008-.031c.159-.669.251-.986.3-1.135l.4-1.319h.815V6.6h-.544V5.46c0-.27.012-.752.035-1.358,0-.022,0-.031,0-.031h-.018v.006l0,.009,0,.017c-.162.63-.293,1.067-.374,1.322L149.981,6.6h-.544l-.363-1.173c-.079-.25-.208-.682-.373-1.324l-.008-.03h-.018l0,.058v.038c.021.535.032.971.032,1.294V6.6Zm-2.066,0h-.6V4.035h-.96V3.529h2.519v.506h-.96V6.6Z"/></svg>