<svg xmlns="http://www.w3.org/2000/svg" viewBox="0 0 318 36"><defs><style>.a{fill:rgba(0,0,0,0);}.b{fill:#c00;}</style></defs><rect class="a" width="318" height="36"/><path class="b" d="M18.365,30.14h0L1.257,13.249a4.2,4.2,0,0,1-.006-5.984L7.313,1.28a4.318,4.318,0,0,1,6.063,0l4.989,4.926,4.981-4.919a4.31,4.31,0,0,1,6.065-.006l6.058,5.981a4.193,4.193,0,0,1,0,5.984L18.365,30.14Zm88.272,0a19.1,19.1,0,0,1-5.206-.661A11.706,11.706,0,0,1,97.5,27.568a9.233,9.233,0,0,1-2.586-3.054,10.96,10.96,0,0,1-1.168-4.09h9.032c.452,2.084,1.642,2.9,4.245,2.9,2.175,0,3.474-.769,3.474-2.058a1.653,1.653,0,0,0-.965-1.609,13.353,13.353,0,0,0-2.934-.914c-.377-.092-.766-.187-1.2-.3-4.173-1.069-6.65-1.941-7.8-2.744a7.582,7.582,0,0,1-2.5-2.824,8.354,8.354,0,0,1-.82-3.767,8.047,8.047,0,0,1,3.16-6.625A11.144,11.144,0,0,1,101.239.646,18.922,18.922,0,0,1,106.366,0a19.421,19.421,0,0,1,5,.6,11.356,11.356,0,0,1,3.779,1.743,8.424,8.424,0,0,1,2.476,2.821,9.827,9.827,0,0,1,1.094,3.832h-8.762c-.308-1.716-1.5-2.515-3.743-2.515a4.042,4.042,0,0,0-2.2.486,1.64,1.64,0,0,0-.728,1.458c0,1.414,1.312,1.751,3.695,2.363l.589.152c.543.139,1.069.269,1.578.4l.01,0c2.869.712,5.134,1.274,6.672,2.308a7.358,7.358,0,0,1,3.7,6.669,9.939,9.939,0,0,1-.836,4.156,8.163,8.163,0,0,1-2.468,3.088,11.5,11.5,0,0,1-4.038,1.924A21.24,21.24,0,0,1,106.637,30.14Zm-51.756,0a17.587,17.587,0,0,1-6.213-1.05,12.833,12.833,0,0,1-4.675-3c-2.6-2.642-3.97-6.445-3.97-11,0-4.571,1.37-8.391,3.961-11.046S50.266,0,54.688,0A19.147,19.147,0,0,1,60.31.77a12.077,12.077,0,0,1,4.244,2.25,10.524,10.524,0,0,1,2.775,3.636,14.013,14.013,0,0,1,1.215,4.928H59.706a4.891,4.891,0,0,0-1.438-3.3A5,5,0,0,0,54.8,7.163,4.642,4.642,0,0,0,50.722,9.14a10.607,10.607,0,0,0-1.361,5.95,10.019,10.019,0,0,0,1.453,5.888,4.951,4.951,0,0,0,4.261,2,4.69,4.69,0,0,0,3.386-1.22,5.359,5.359,0,0,0,1.477-3.505H68.7a14.347,14.347,0,0,1-1.2,5.024,10.859,10.859,0,0,1-2.781,3.735,12.079,12.079,0,0,1-4.243,2.327A18.314,18.314,0,0,1,54.881,30.14Zm126.249-.392a8.19,8.19,0,0,1-8.2-5.551,10.627,10.627,0,0,1-.585-3.556,9.495,9.495,0,0,1,2.343-6.445,7.9,7.9,0,0,1,2.677-1.926,9,9,0,0,1,7.049.035,7.131,7.131,0,0,1,2.613,2.068,11.6,11.6,0,0,1,2.136,7.274H176.179c.287,3.185,2.138,5.088,4.951,5.088a3.847,3.847,0,0,0,3.9-2.377h3.763a6.57,6.57,0,0,1-2.522,3.851A8.557,8.557,0,0,1,181.13,29.748Zm-.271-15.234a4.24,4.24,0,0,0-3.2,1.247,5.814,5.814,0,0,0-1.416,3.2h8.884a4.962,4.962,0,0,0-1.246-3.243A4.057,4.057,0,0,0,180.859,14.515ZM134.61,29.748a9.25,9.25,0,0,1-3.642-.707,7.96,7.96,0,0,1-2.755-1.938,9.448,9.448,0,0,1-2.353-6.462A9.488,9.488,0,0,1,128.18,14.2a7.826,7.826,0,0,1,2.7-1.926,8.938,8.938,0,0,1,3.558-.7,9.508,9.508,0,0,1,2.967.445,7.094,7.094,0,0,1,2.309,1.255,7.178,7.178,0,0,1,2.455,4.461h-3.8a3.644,3.644,0,0,0-3.8-3.08c-3.015,0-4.815,2.24-4.815,5.993s1.788,5.993,4.782,5.993a3.648,3.648,0,0,0,4-3.449h3.729a6.861,6.861,0,0,1-2.254,4.725A8.013,8.013,0,0,1,134.61,29.748Zm89.852-.134a6.594,6.594,0,0,1-4.2-1.273,4.3,4.3,0,0,1-1.222-1.581,5.347,5.347,0,0,1-.44-2.2,4.439,4.439,0,0,1,2.076-4.035A13.326,13.326,0,0,1,225.75,19h.024a13.754,13.754,0,0,0,3.019-.657,1.517,1.517,0,0,0,1.06-1.515A2.072,2.072,0,0,0,229,15.084a4.124,4.124,0,0,0-2.432-.636,4.055,4.055,0,0,0-2.62.7,2.862,2.862,0,0,0-.941,2.21h-3.628a5.483,5.483,0,0,1,1.8-4.042,6.176,6.176,0,0,1,2.208-1.23,10.206,10.206,0,0,1,3.149-.452,11.968,11.968,0,0,1,3.1.361,5.9,5.9,0,0,1,2.227,1.1,4.581,4.581,0,0,1,1.343,1.858,7.147,7.147,0,0,1,.45,2.64v7.533c0,.984.167,1.594,1,1.594a2.51,2.51,0,0,0,.5-.054h.1v2.444a3.52,3.52,0,0,1-1.763.369,4.385,4.385,0,0,1-2.467-.569,2.667,2.667,0,0,1-1.093-1.875h-.035a6.114,6.114,0,0,1-1.988,1.791A6.96,6.96,0,0,1,224.462,29.615Zm5.46-9.274a12.619,12.619,0,0,1-3.426,1.1c-2.489.532-4,1-4,3.013a2.217,2.217,0,0,0,.847,1.926,3.531,3.531,0,0,0,2.069.519,4.655,4.655,0,0,0,3.387-1.247,3.686,3.686,0,0,0,1.123-2.6ZM149.6,29.615a6.6,6.6,0,0,1-4.205-1.273,4.294,4.294,0,0,1-1.222-1.581,5.333,5.333,0,0,1-.44-2.2,4.438,4.438,0,0,1,2.077-4.035A13.322,13.322,0,0,1,150.885,19a13.935,13.935,0,0,0,3.043-.66,1.517,1.517,0,0,0,1.059-1.515,2.072,2.072,0,0,0-.856-1.741,4.127,4.127,0,0,0-2.433-.636,4.052,4.052,0,0,0-2.619.7,2.863,2.863,0,0,0-.941,2.21H144.51a5.48,5.48,0,0,1,1.8-4.042,6.178,6.178,0,0,1,2.208-1.23,10.185,10.185,0,0,1,3.149-.452,11.945,11.945,0,0,1,3.1.361,5.892,5.892,0,0,1,2.227,1.1,4.581,4.581,0,0,1,1.343,1.858,7.108,7.108,0,0,1,.45,2.64v7.533c0,.984.167,1.594,1,1.594a2.587,2.587,0,0,0,.5-.054h.1v2.444a3.486,3.486,0,0,1-1.763.369,4.38,4.38,0,0,1-2.467-.569,2.67,2.67,0,0,1-1.094-1.875h-.032a6.09,6.09,0,0,1-1.988,1.791A6.974,6.974,0,0,1,149.6,29.615Zm5.458-9.274a12.6,12.6,0,0,1-3.423,1.1c-2.49.532-4,1-4,3.013a2.216,2.216,0,0,0,.848,1.926,3.533,3.533,0,0,0,2.068.519,4.655,4.655,0,0,0,3.386-1.247,3.688,3.688,0,0,0,1.123-2.6Zm-69.412,9H76.417L66.73.8h9.456l4.863,18.443L86.258.8h9.108L85.642,29.34Zm166.994-.095H248.8V5.308h3.833V18.934L259.217,12h4.543L257.588,18.4l6.646,10.847h-4.305l-4.985-8.5-2.306,2.411v6.094Zm-46.789,0h-3.832V17.963c0-2-1.025-3.147-2.814-3.147a3.838,3.838,0,0,0-3.7,4.118V29.246h-3.832V12H195.4v2.377h.1a5.824,5.824,0,0,1,5.086-2.813,5.206,5.206,0,0,1,2.865.82,5.031,5.031,0,0,1,1.848,2.228h.067a6.407,6.407,0,0,1,2.251-2.24,6.05,6.05,0,0,1,3.039-.808,5.434,5.434,0,0,1,4.066,1.565,6.136,6.136,0,0,1,1.5,4.328V29.246h-3.866V17.963c0-1.941-1.1-3.147-2.883-3.147-2.1,0-3.628,1.732-3.628,4.118V29.246Zm35.365,0H237.38V12h3.73v2.845h.1a6.334,6.334,0,0,1,1.9-2.18,4.723,4.723,0,0,1,2.741-.8,3,3,0,0,1,1.085.134v3.448h-.1a3.559,3.559,0,0,0-.915-.1c-2.863,0-4.713,1.984-4.713,5.055v8.838Zm-74.866,0h-3.833V12h3.73v2.845h.1a6.342,6.342,0,0,1,1.9-2.18,4.727,4.727,0,0,1,2.742-.8,3.017,3.017,0,0,1,1.085.134v3.448h-.1a3.541,3.541,0,0,0-.915-.1c-2.863,0-4.714,1.984-4.714,5.055v8.838ZM268.811,12.271H268.2V8.823h.984l.44,1.507c.125.4.339,1.3.34,1.306H270v-.013l0-.009c.1-.414.238-.973.335-1.284l.44-1.507h.984v3.447h-.611V11.032c0-.509.022-1.2.035-1.567V9.46h-.035a.044.044,0,0,1,0,.013c-.036.134-.225.838-.437,1.494l-.407,1.3h-.645l-.406-1.3c-.185-.576-.354-1.183-.437-1.493l0-.008,0-.006h-.035V9.5c.027.82.033,1.285.033,1.531v1.239Zm-2.34,0h-.678V9.392h-1.085V8.823h2.848v.569h-1.084v2.878Z" transform="translate(0 0)"/></svg>