<svg xmlns="http://www.w3.org/2000/svg" xmlns:xlink="http://www.w3.org/1999/xlink" viewBox="0 0 20 20"><defs><style>.a{fill:#c00;}.b{clip-path:url(#a);}.c{fill:rgba(0,0,0,0);}.d{clip-path:url(#b);}</style><clipPath id="a"><path d="M0,10A10,10,0,1,1,10,20,10.011,10.011,0,0,1,0,10Zm2,0a8,8,0,1,0,8-8A8.01,8.01,0,0,0,2,10Zm7,4.5a1,1,0,1,1,1,1A1,1,0,0,1,9,14.5ZM9,12V5h2v7Z" transform="translate(2 2)"/></clipPath><clipPath id="b"><rect class="a" width="24" height="24"/></clipPath></defs><g transform="translate(-2 -2)"><path d="M0,10A10,10,0,1,1,10,20,10.011,10.011,0,0,1,0,10Zm2,0a8,8,0,1,0,8-8A8.01,8.01,0,0,0,2,10Zm7,4.5a1,1,0,1,1,1,1A1,1,0,0,1,9,14.5ZM9,12V5h2v7Z" transform="translate(2 2)"/><g class="b"><rect class="c" width="24" height="24"/><rect class="a" width="24" height="24"/></g></g></svg>